<svg xmlns="http://www.w3.org/2000/svg" xmlns:xlink="http://www.w3.org/1999/xlink" version="1.1" id="Layer_1" width="250px" height="75px" viewBox="0 0 893.8 281.9" enable-background="new 0 0 893.8 281.9" xml:space="preserve"><g><g><g><polygon opacity="0.56" fill="#FFFFFF" points="135.7,250.8 59.6,212.9 59.6,178.5 135.7,216.3"/><polygon opacity="0.28" fill="#FFFFFF" points="134.7,250.8 210.8,212.9 210.8,178.5 134.7,216.3"/><polygon opacity="0.56" fill="#FFFFFF" points="134.7,139.6 210.8,177.5 210.8,211.9 134.7,174"/><polygon opacity="0.69" fill="#FFFFFF" points="135.7,139.6 59.6,177.5 59.6,211.9 135.7,174"/></g><g><polygon opacity="0.56" fill="#FFFFFF" points="135.7,198.1 59.6,160.3 59.6,125.9 135.7,163.7"/><polygon opacity="0.28" fill="#FFFFFF" points="134.7,198.1 210.8,160.3 210.8,125.9 134.7,163.7"/><polygon opacity="0.56" fill="#FFFFFF" points="134.7,87 210.8,124.9 210.8,159.3 134.7,121.4"/><polygon opacity="0.69" fill="#FFFFFF" points="135.7,87 59.6,124.9 59.6,159.3 135.7,121.4"/></g><g><polygon opacity="0.56" fill="#FFFFFF" points="135.7,145.5 59.6,107.7 59.6,73.3 135.7,111.1"/><polygon opacity="0.28" fill="#FFFFFF" points="134.7,145.5 210.8,107.7 210.8,73.3 134.7,111.1"/><polygon opacity="0.56" fill="#FFFFFF" points="134.7,34.4 210.8,72.3 210.8,106.7 134.7,68.8"/><polygon opacity="0.69" fill="#FFFFFF" points="135.7,34.4 59.6,72.3 59.6,106.7 135.7,68.8"/></g><g><g><path fill="#FFFFFF" d="M279.9 101.8v25.7l29.2-30.4c1.4-1.5 2.6-2.6 3.6-3.3s2.3-1.1 3.9-1.1c2.1 0 3.9 0.6 5.2 1.9 s2 2.8 2 4.6c0 2.2-1.1 4.3-3.4 6.5l-18.1 17.1l20.8 29.8c1.5 2.1 2.6 3.9 3.3 5.4s1.1 3.1 1.1 4.5c0 1.6-0.6 3.1-1.9 4.3 s-3 1.8-5.2 1.8c-2.1 0-3.8-0.4-5.1-1.3c-1.3-0.9-2.4-2.1-3.3-3.5c-0.9-1.5-1.7-2.8-2.4-4l-17.6-27l-12.2 11.7v15.2 c0 3.1-0.7 5.3-2.1 6.8c-1.4 1.5-3.2 2.2-5.4 2.2c-1.3 0-2.5-0.3-3.7-1c-1.2-0.7-2.1-1.6-2.7-2.7c-0.5-0.9-0.8-2-0.9-3.3 c-0.1-1.2-0.2-3-0.2-5.4v-54.6c0-3 0.7-5.3 2-6.8c1.3-1.5 3.1-2.3 5.4-2.3c2.2 0 4 0.7 5.4 2.2 C279.2 96.5 279.9 98.8 279.9 101.8z"/><path fill="#FFFFFF" d="M387.8 159.1l-3.5-9.2h-29.8l-3.5 9.4c-1.4 3.7-2.5 6.1-3.5 7.4c-1 1.3-2.6 1.9-4.8 1.9 c-1.9 0-3.5-0.7-5-2.1c-1.4-1.4-2.2-2.9-2.2-4.7c0-1 0.2-2 0.5-3.1s0.9-2.6 1.7-4.5l18.8-47.7c0.5-1.4 1.2-3 1.9-4.9 c0.8-1.9 1.6-3.5 2.4-4.8c0.9-1.3 2-2.3 3.4-3.1c1.4-0.8 3.1-1.2 5.1-1.2c2.1 0 3.8 0.4 5.2 1.2c1.4 0.8 2.5 1.8 3.4 3 s1.6 2.6 2.2 4c0.6 1.4 1.3 3.3 2.2 5.7l19.2 47.4c1.5 3.6 2.3 6.2 2.3 7.9c0 1.7-0.7 3.3-2.1 4.7c-1.4 1.4-3.1 2.1-5.1 2.1 c-1.2 0-2.2-0.2-3-0.6c-0.8-0.4-1.5-1-2.1-1.7c-0.6-0.7-1.2-1.8-1.8-3.3C388.8 161.6 388.2 160.3 387.8 159.1z M358.3 138.7 h21.9l-11.1-30.3L358.3 138.7z"/><path fill="#FFFFFF" d="M439.3 156.4l-11.8-46.8v50.7c0 2.8-0.6 4.9-1.9 6.3c-1.3 1.4-2.9 2.1-5 2.1c-2 0-3.6-0.7-4.9-2.1 c-1.3-1.4-1.9-3.5-1.9-6.3v-58.1c0-3.2 0.8-5.4 2.5-6.5s3.9-1.7 6.8-1.7h4.6c2.8 0 4.8 0.3 6 0.8c1.3 0.5 2.2 1.4 2.8 2.7 s1.3 3.4 2.1 6.4l10.7 40.2l10.7-40.2c0.8-2.9 1.5-5.1 2.1-6.4s1.5-2.2 2.8-2.7c1.3-0.5 3.3-0.8 6-0.8h4.6 c2.8 0 5.1 0.6 6.8 1.7s2.5 3.3 2.5 6.5v58.1c0 2.8-0.6 4.9-1.9 6.3s-2.9 2.1-5 2.1c-2 0-3.6-0.7-4.9-2.1s-1.9-3.5-1.9-6.3 v-50.7l-11.8 46.8c-0.8 3-1.4 5.3-1.9 6.7c-0.5 1.4-1.4 2.7-2.7 3.9c-1.3 1.2-3.1 1.8-5.4 1.8c-1.7 0-3.2-0.4-4.4-1.1 c-1.2-0.8-2.1-1.7-2.8-2.9s-1.2-2.5-1.6-3.9C440.1 159.4 439.7 157.9 439.3 156.4z"/><path fill="#FFFFFF" d="M546.9 159.1l-3.5-9.2h-29.8l-3.5 9.4c-1.4 3.7-2.5 6.1-3.5 7.4c-1 1.3-2.6 1.9-4.8 1.9 c-1.9 0-3.5-0.7-5-2.1c-1.4-1.4-2.2-2.9-2.2-4.7c0-1 0.2-2 0.5-3.1s0.9-2.6 1.7-4.5l18.8-47.7c0.5-1.4 1.2-3 1.9-4.9 c0.8-1.9 1.6-3.5 2.4-4.8s2-2.3 3.4-3.1s3.1-1.2 5.1-1.2c2.1 0 3.8 0.4 5.2 1.2s2.5 1.8 3.4 3s1.6 2.6 2.2 4 c0.6 1.4 1.3 3.3 2.2 5.7l19.2 47.4c1.5 3.6 2.3 6.2 2.3 7.9c0 1.7-0.7 3.3-2.1 4.7c-1.4 1.4-3.1 2.1-5.1 2.1 c-1.2 0-2.2-0.2-3-0.6c-0.8-0.4-1.5-1-2.1-1.7c-0.6-0.7-1.2-1.8-1.8-3.3C547.9 161.6 547.4 160.3 546.9 159.1z M517.5 138.7 h21.9l-11.1-30.3L517.5 138.7z"/><path fill="#FFFFFF" d="M612.3 106.3h-16.2v53.3c0 3.1-0.7 5.3-2.1 6.8c-1.4 1.5-3.1 2.2-5.3 2.2c-2.2 0-4-0.8-5.4-2.3 s-2.1-3.8-2.1-6.8v-53.3h-16.2c-2.5 0-4.4-0.6-5.7-1.7c-1.2-1.1-1.9-2.6-1.9-4.4c0-1.9 0.6-3.4 1.9-4.5c1.3-1.1 3.1-1.7 5.6-1.7 h47.3c2.6 0 4.5 0.6 5.7 1.7c1.3 1.1 1.9 2.6 1.9 4.5s-0.6 3.3-1.9 4.4C616.8 105.8 614.9 106.3 612.3 106.3z"/><path fill="#FFFFFF" d="M677.1 105.5h-33.5v18h30.8c2.3 0 4 0.5 5.1 1.5s1.7 2.4 1.7 4s-0.6 3-1.7 4.1c-1.1 1.1-2.8 1.6-5.1 1.6 h-30.8v20.9h34.6c2.3 0 4.1 0.5 5.3 1.6c1.2 1.1 1.8 2.5 1.8 4.3c0 1.7-0.6 3.1-1.8 4.2c-1.2 1.1-2.9 1.6-5.3 1.6h-40.4 c-3.2 0-5.6-0.7-7-2.2s-2.1-3.8-2.1-7v-55.2c0-2.1 0.3-3.9 1-5.2s1.6-2.3 3-3c1.4-0.6 3.1-0.9 5.2-0.9h39.2 c2.4 0 4.1 0.5 5.3 1.6s1.7 2.4 1.7 4.1c0 1.7-0.6 3.1-1.7 4.2S679.5 105.5 677.1 105.5z"/><path fill="#FFFFFF" d="M717.1 136h-5.2v23.6c0 3.1-0.7 5.4-2.1 6.9s-3.2 2.2-5.4 2.2c-2.4 0-4.2-0.8-5.5-2.3s-2-3.8-2-6.8 v-56.5c0-3.2 0.7-5.5 2.2-7c1.4-1.4 3.8-2.2 7-2.2h24.2c3.3 0 6.2 0.1 8.6 0.4s4.5 0.9 6.4 1.7c2.3 1 4.3 2.4 6.1 4.2 c1.8 1.8 3.1 3.9 4 6.3c0.9 2.4 1.4 4.9 1.4 7.6c0 5.5-1.5 9.8-4.6 13.1c-3.1 3.3-7.8 5.6-14 7c2.6 1.4 5.2 3.5 7.6 6.2 c2.4 2.7 4.5 5.6 6.4 8.7c1.9 3.1 3.4 5.9 4.4 8.4c1.1 2.5 1.6 4.2 1.6 5.1c0 1-0.3 1.9-0.9 2.9c-0.6 1-1.5 1.7-2.5 2.3 c-1.1 0.6-2.3 0.8-3.7 0.8c-1.7 0-3.1-0.4-4.2-1.2c-1.1-0.8-2.1-1.8-2.9-3c-0.8-1.2-1.9-3-3.3-5.3l-6-9.9 c-2.1-3.6-4-6.4-5.7-8.3c-1.7-1.9-3.4-3.2-5.1-3.9S719.7 136 717.1 136z M725.6 105.2h-13.7v20.2h13.3c3.6 0 6.6-0.3 9-0.9 s4.3-1.7 5.6-3.2c1.3-1.5 1.9-3.5 1.9-6.1c0-2-0.5-3.8-1.6-5.4c-1-1.6-2.5-2.7-4.3-3.5C734.1 105.6 730.7 105.2 725.6 105.2z"/><path fill="#FFFFFF" d="M817.8 159.1l-3.5-9.2h-29.8l-3.5 9.4c-1.4 3.7-2.5 6.1-3.5 7.4c-1 1.3-2.6 1.9-4.8 1.9 c-1.9 0-3.5-0.7-5-2.1c-1.4-1.4-2.2-2.9-2.2-4.7c0-1 0.2-2 0.5-3.1c0.3-1.1 0.9-2.6 1.7-4.5l18.8-47.7c0.5-1.4 1.2-3 1.9-4.9 c0.8-1.9 1.6-3.5 2.4-4.8s2-2.3 3.4-3.1s3.1-1.2 5.1-1.2c2.1 0 3.8 0.4 5.2 1.2s2.5 1.8 3.4 3s1.6 2.6 2.2 4 c0.6 1.4 1.3 3.3 2.2 5.7l19.2 47.4c1.5 3.6 2.3 6.2 2.3 7.9c0 1.7-0.7 3.3-2.1 4.7c-1.4 1.4-3.1 2.1-5.1 2.1 c-1.2 0-2.2-0.2-3-0.6c-0.8-0.4-1.5-1-2.1-1.7c-0.6-0.7-1.2-1.8-1.8-3.3C818.8 161.6 818.3 160.3 817.8 159.1z M788.4 138.7 h21.9l-11.1-30.3L788.4 138.7z"/></g></g></g><g><path fill="#FFFFFF" d="M418.5 192.1c1.7-0.3 4-0.5 7-0.5c3.6 0 6.2 0.8 7.9 2.3c1.5 1.3 2.5 3.4 2.5 5.9c0 2.5-0.7 4.5-2.2 6 c-2 2-5 3.1-8.6 3.1c-1.1 0-2.1 0-2.9-0.2v11.2h-3.6V192.1z M422.2 205.6c0.8 0.2 1.8 0.3 3 0.3c4.4 0 7-2.2 7-6 c0-3.7-2.7-5.5-6.6-5.5c-1.6 0-2.8 0.1-3.4 0.3V205.6z"/><path fill="#FFFFFF" d="M456.6 206.6h-10.9v10.1h12.2v3H442v-28.1h15.2v3h-11.5v8.9h10.9V206.6z"/><path fill="#FFFFFF" d="M463.9 192.1c1.8-0.3 4.5-0.6 7-0.6c3.9 0 6.4 0.7 8.1 2.3c1.4 1.2 2.2 3.2 2.2 5.4c0 3.7-2.3 6.1-5.2 7.1 v0.1c2.1 0.7 3.4 2.7 4.1 5.7c0.9 3.9 1.6 6.6 2.2 7.7h-3.7c-0.5-0.8-1.1-3.2-1.8-6.7c-0.8-3.9-2.4-5.3-5.7-5.5h-3.4v12.2h-3.6 V192.1z M467.6 204.9h3.7c3.9 0 6.3-2.1 6.3-5.3c0-3.6-2.6-5.2-6.5-5.2c-1.7 0-3 0.1-3.6 0.3V204.9z"/><path fill="#FFFFFF" d="M487.7 191.7h15.1v3h-11.5v9.3h10.6v3h-10.6v12.7h-3.7V191.7z"/><path fill="#FFFFFF" d="M533.4 205.5c0 9.6-5.9 14.8-13 14.8c-7.5 0-12.6-5.8-12.6-14.3c0-8.9 5.5-14.7 13-14.7 C528.4 191.2 533.4 197.1 533.4 205.5z M511.5 205.9c0 6 3.2 11.4 9 11.4c5.7 0 9-5.3 9-11.7c0-5.6-2.9-11.5-9-11.5 C514.5 194.2 511.5 199.8 511.5 205.9z"/><path fill="#FFFFFF" d="M539.4 192.1c1.8-0.3 4.5-0.6 7-0.6c3.9 0 6.4 0.7 8.1 2.3c1.4 1.2 2.2 3.2 2.2 5.4c0 3.7-2.3 6.1-5.2 7.1 v0.1c2.1 0.7 3.4 2.7 4.1 5.7c0.9 3.9 1.6 6.6 2.2 7.7H554c-0.5-0.8-1.1-3.2-1.8-6.7c-0.8-3.9-2.4-5.3-5.7-5.5h-3.4v12.2h-3.6 V192.1z M543.1 204.9h3.7c3.9 0 6.3-2.1 6.3-5.3c0-3.6-2.6-5.2-6.5-5.2c-1.7 0-3 0.1-3.6 0.3V204.9z"/><path fill="#FFFFFF" d="M586.9 207.5c-0.2-3.9-0.5-8.7-0.5-12.1h-0.1c-1 3.2-2.1 6.8-3.5 10.7l-5 13.6h-2.7l-4.6-13.4 c-1.3-4-2.4-7.6-3.2-10.9h-0.1c-0.1 3.5-0.3 8.2-0.5 12.4l-0.8 12h-3.5l2-28.1h4.6l4.8 13.6c1.2 3.5 2.1 6.5 2.8 9.5h0.1 c0.8-2.8 1.7-5.9 3-9.5l5-13.6h4.6l1.7 28.1h-3.6L586.9 207.5z"/><path fill="#FFFFFF" d="M602.2 211l-2.9 8.8h-3.7l9.6-28.1h4.3l9.6 28.1h-3.9l-3-8.8H602.2z M611.5 208.1l-2.8-8.1 c-0.6-1.8-1-3.5-1.5-5.1h-0.1c-0.4 1.6-0.8 3.4-1.4 5.1l-2.7 8.1H611.5z"/><path fill="#FFFFFF" d="M624.5 219.8v-28.1h4l9 14.2c2 3.3 3.7 6.2 5 9.1l0.1 0c-0.3-3.7-0.4-7.2-0.4-11.5v-11.7h3.4v28.1h-3.7 l-8.9-14.2c-2-3.1-3.8-6.3-5.2-9.4l-0.1 0c0.2 3.5 0.2 6.9 0.2 11.6v12H624.5z"/><path fill="#FFFFFF" d="M672.9 218.9c-1.3 0.7-4 1.3-7.4 1.3c-7.9 0-13.8-5-13.8-14.2c0-8.8 6-14.7 14.7-14.7 c3.5 0 5.7 0.8 6.7 1.2l-0.9 3c-1.3-0.7-3.3-1.2-5.6-1.2c-6.6 0-11 4.2-11 11.6c0 6.9 4 11.3 10.7 11.3c2.2 0 4.5-0.5 6-1.2 L672.9 218.9z"/><path fill="#FFFFFF" d="M693.3 206.6h-10.9v10.1h12.2v3h-15.8v-28.1H694v3h-11.5v8.9h10.9V206.6z"/><path fill="#FFFFFF" d="M730.5 218.9c-1.3 0.7-4 1.3-7.4 1.3c-7.9 0-13.8-5-13.8-14.2c0-8.8 6-14.7 14.7-14.7 c3.5 0 5.7 0.8 6.7 1.2l-0.9 3c-1.3-0.7-3.3-1.2-5.6-1.2c-6.6 0-11 4.2-11 11.6c0 6.9 4 11.3 10.7 11.3c2.2 0 4.5-0.5 6-1.2 L730.5 218.9z"/><path fill="#FFFFFF" d="M736.4 191.7h3.7v25h12v3h-15.7V191.7z"/><path fill="#FFFFFF" d="M779.8 205.5c0 9.6-5.9 14.8-13 14.8c-7.5 0-12.6-5.8-12.6-14.3c0-8.9 5.5-14.7 13-14.7 C774.9 191.2 779.8 197.1 779.8 205.5z M758 205.9c0 6 3.2 11.4 9 11.4c5.7 0 9-5.3 9-11.7c0-5.6-2.9-11.5-9-11.5 C761 194.2 758 199.8 758 205.9z"/><path fill="#FFFFFF" d="M789.5 191.7v16.7c0 6.2 2.8 8.9 6.5 8.9c4.1 0 6.8-2.7 6.8-8.9v-16.7h3.7v16.4c0 8.6-4.5 12.1-10.6 12.1 c-5.7 0-10.1-3.2-10.1-12v-16.5H789.5z"/><path fill="#FFFFFF" d="M814.2 192.2c2.2-0.4 4.8-0.6 7.7-0.6c5.2 0 8.9 1.2 11.4 3.5c2.5 2.3 4 5.5 4 10.1c0 4.6-1.5 8.3-4 10.9 c-2.7 2.6-7 4-12.5 4c-2.6 0-4.7-0.1-6.6-0.3V192.2z M817.9 217c0.9 0.1 2.2 0.2 3.7 0.2c7.8 0 12-4.3 12-11.9 c0-6.6-3.7-10.8-11.4-10.8c-1.9 0-3.3 0.2-4.2 0.4V217z"/></g></g></svg>